<?xml version="1.0" encoding="utf-8"?>
<!-- Generator: Adobe Illustrator 24.1.1, SVG Export Plug-In . SVG Version: 6.00 Build 0)  -->
<svg version="1.1"
	 id="svg952" inkscape:version="1.0.2 (e86c870879, 2021-01-15)" sodipodi:docname="b2ctob2b.svg" xmlns:cc="http://creativecommons.org/ns#" xmlns:dc="http://purl.org/dc/elements/1.1/" xmlns:inkscape="http://www.inkscape.org/namespaces/inkscape" xmlns:rdf="http://www.w3.org/1999/02/22-rdf-syntax-ns#" xmlns:sodipodi="http://sodipodi.sourceforge.net/DTD/sodipodi-0.dtd" xmlns:svg="http://www.w3.org/2000/svg"
	 xmlns="http://www.w3.org/2000/svg" xmlns:xlink="http://www.w3.org/1999/xlink" x="0px" y="0px" viewBox="0 0 65 74"
	 style="enable-background:new 0 0 65 74;" xml:space="preserve">
<style type="text/css">
	.st0{fill:#FFFFFF;}
</style>
<sodipodi:namedview  bordercolor="#666666" borderopacity="1" gridtolerance="10" guidetolerance="10" id="namedview954" inkscape:current-layer="svg952" inkscape:cx="32.5" inkscape:cy="43.294524" inkscape:pageopacity="0" inkscape:pageshadow="2" inkscape:window-height="2121" inkscape:window-maximized="1" inkscape:window-width="3832" inkscape:window-x="4" inkscape:window-y="4" inkscape:zoom="25.418919" objecttolerance="10" pagecolor="#ffffff" showgrid="false">
	</sodipodi:namedview>
<g id="Layer_1">
	<path id="path548" class="st0" d="M32.5,26.9c0.8,0,1.5-0.7,1.5-1.5s-0.7-1.5-1.5-1.5S31,24.6,31,25.4C31,26.2,31.7,26.9,32.5,26.9
		"/>
</g>
<g id="Capa_2_1_">
	<path id="path949" class="st0" d="M49.2,22.4L39.1,12.3L46,0.1l0.9,0.3c0.2,0,5,1.5,8.9,5.4c3.6,3.6,5.3,8.6,5.4,8.9l0.3,0.9
		L49.2,22.4z M42.1,11.8l7.5,7.5l8.9-5.1c-0.6-1.5-2.1-4.5-4.4-6.9c-2.4-2.4-5.4-3.9-6.9-4.5L42.1,11.8z M17.4,57.7
		c-3.3,0-6.5-1.5-9.5-4.5c-4.5-4.5-5.6-9.6-3.2-14.7L5.5,37l18.7,18.7l-1.5,0.8C20.9,57.3,19.1,57.7,17.4,57.7z M9.6,51.6
		c2.4,2.4,6,4.7,10.4,3.3L6.3,41.2C4.9,46,7.6,49.8,9.6,51.6z M54.8,64.8c0.5-1.5-0.3-3.6-2.7-6c-1.5-1.5-3.3-3.2-5.6-4.8
		c0.3-1.1,0.3-2-0.5-2.6l0,0c-0.8-0.5-1.5-0.2-2.4,0.6c-0.3-0.2-0.5-0.3-0.8-0.5c-0.6-0.5-1.4-0.8-2-1.1c0.3-1.1,0.3-2-0.5-2.4
		c-0.5-0.3-1.2-0.5-2.3,0.5c-0.2,0-0.2,0.2-0.3,0.3c-1.4-0.6-2.6-1.2-3.8-1.5c-0.5-0.2-0.6-0.5-0.6-0.6c-0.2-0.3,0-0.6,0.2-0.9
		c2.3-3.6,4.5-8.4,6.6-14.1l8.4-8.4L38.2,12.7l-8.4,8.4c-9.2,3.5-15.7,6.9-19.3,10.5c-1.5,1.5-2.9,3.2-3.6,5l-0.3,0.8l17.6,17.3
		l2.1-1.1c0.5-0.3,1.1-0.2,1.5,0.3c2.1,2.4,5.4,5.1,9.3,7.4c3.6,2.3,7.4,3.9,10.5,4.8c1.4,0.5,2.7,0.6,3.6,0.6
		c0.8,0,1.4-0.2,1.8-0.3c2.7,2.4,5.1,5.3,4.8,6.9l2.4,0.6C60.9,70.8,57.5,67.1,54.8,64.8z M43.2,55c0.2-0.2,0.2-0.3,0.3-0.5
		c0.6-0.9,1.4-1.5,1.7-1.8c0,0.5-0.5,1.2-0.9,2.3c-0.2,0.2-0.2,0.3-0.3,0.5c-0.8,1.2-1.5,1.8-2,2.1C42,57.1,42.4,56.2,43.2,55z
		 M37.6,51.7c0.2-0.2,0.2-0.2,0.3-0.3c0.8-0.9,1.4-1.5,1.7-1.8l0,0l0,0c-0.2,0.5-0.5,1.2-0.9,2.3c-0.2,0.2-0.2,0.3-0.3,0.5
		c-0.8,1.2-1.5,1.8-2,2.1C36.5,53.8,36.8,52.9,37.6,51.7z M48.1,63.9c-2.9-0.8-6.3-2.4-9.9-4.5c-3.6-2.3-6.8-4.7-8.7-6.9
		c-0.8-0.8-1.7-1.2-2.7-1.2c-0.6,0-1.1,0.2-1.7,0.3l-0.6,0.3L9.5,36.8c0.8-1.2,1.7-2.4,2.7-3.5l0,0c3.3-3.3,9.8-6.8,18.5-10.1
		l7.4-7.2l7.1,7.1l-6.9,6.9l-0.3,0.5c-2.1,5.7-4.4,10.4-6.6,14c-0.6,0.9-0.8,2-0.3,3c0.3,1.1,1.2,1.8,2.1,2.1c0.9,0.3,2,0.8,3,1.2
		c0,0,0,0.2-0.2,0.2c-0.6,0.9-1.1,2-1.4,2.7c-0.5,1.4,0,2.1,0.5,2.4c0.2,0.2,0.5,0.2,0.8,0.2c1.2,0,2.7-1.5,3.6-3
		c0.2-0.2,0.3-0.3,0.3-0.6c0.6,0.3,1.1,0.6,1.7,0.9c0.2,0,0.2,0.2,0.3,0.2c-0.2,0.2-0.2,0.3-0.3,0.5c-1.2,1.8-2.1,4.2-0.9,5.1
		c0.2,0.2,0.5,0.2,0.8,0.2c1.2,0,2.6-1.5,3.6-3c0.2-0.2,0.2-0.3,0.3-0.3c2,1.4,3.6,2.9,4.8,4.2c0.9,0.9,1.4,1.7,1.7,2.3
		c-0.3-0.2-0.5-0.3-0.6-0.3l-1.4,2l0,0C49.6,64.2,48.9,64.1,48.1,63.9z"/>
</g>
</svg>
