<?xml version="1.0" encoding="utf-8"?>
<!-- Generator: Adobe Illustrator 23.1.1, SVG Export Plug-In . SVG Version: 6.00 Build 0)  -->
<svg version="1.1" id="Capa_1" xmlns="http://www.w3.org/2000/svg" xmlns:xlink="http://www.w3.org/1999/xlink" x="0px" y="0px"
	 viewBox="0 0 55 55" style="enable-background:new 0 0 55 55;" xml:space="preserve">
<g id="Capa_3">
	<g>
		<path d="M39.4,11.5c-0.6-2-1.6-3.9-3.1-5.4c-2.2-2.2-5.3-3.7-8.7-3.7S21,3.9,18.8,6.1c-1.4,1.4-2.5,3.4-3.1,5.4H4.2l-1,41h48.6
			l-1-41H39.4z M19.7,7.1c2-2,4.8-3.2,7.8-3.2s5.8,1.2,7.8,3.2c1.2,1.2,2.1,2.7,2.6,4.4H17C17.5,9.9,18.5,8.4,19.7,7.1z M49.8,50.5
			H5.2l1-37h9c0,0.4-0.1,0.9-0.1,1.3h1.3c0-0.5,0-0.9,0.1-1.3h21.8c0.1,0.4,0.1,0.9,0.1,1.3h1.3c0-0.4,0-0.9-0.1-1.3h9l1,37H49.8z
			 M27.5,17.4c-0.4,0-0.8-0.2-1.1-0.5c-0.3-0.3-0.5-0.7-0.5-1.1c0-0.8,0.7-1.5,1.5-1.5c0.9,0,1.5,0.7,1.5,1.5
			C29,16.7,28.4,17.4,27.5,17.4z M27.5,14.4c-0.8,0-1.4,0.6-1.4,1.4c0,0.4,0.1,0.7,0.4,1s0.6,0.4,1,0.4c0.8,0,1.4-0.6,1.4-1.4
			C28.9,15.1,28.3,14.4,27.5,14.4z"/>
		<path d="M52.8,53.5H2.2l1.1-43H15c0.7-1.9,1.8-3.7,3.2-5.1c2.5-2.5,5.9-3.9,9.4-3.9s6.9,1.4,9.4,3.9c1.4,1.4,2.5,3.1,3.2,5.1h11.7
			L52.8,53.5z M4.2,51.5h46.6l-1-39H5.2L4.4,43l0.8-30.5h44.4l1,37.9h-0.9v1L4.2,51.5z M6.2,49.5h42.4l-1-35h-6.9c0,0.1,0,0.2,0,0.3
			v1h-3.3v-1c0-0.1,0-0.2,0-0.3h-7.9c0.2,0.3,0.3,0.7,0.3,1.2c0.1,0.7-0.1,1.4-0.6,1.9c-0.9,1-2.6,1.1-3.6,0
			c-0.5-0.5-0.8-1.2-0.8-1.8c0-0.4,0.1-0.9,0.3-1.2h-7.8c0,0.1,0,0.2,0,0.3v1H14v-1c0-0.1,0-0.2,0-0.3H7.2L6.2,49.5z M27.5,14.9
			c-0.6,0-1,0.4-1,1c0,0.4,0.1,0.5,0.3,0.7c0.2,0.2,0.3,0.3,0.7,0.3c0.6,0,1-0.4,1-1S28.1,14.9,27.5,14.9z M18.5,10.5h18
			c-0.5-1-1.1-1.9-1.9-2.7c-1.9-1.9-4.4-3-7.1-3s-5.2,1-7.1,3C19.6,8.6,19,9.5,18.5,10.5z"/>
	</g>
</g>
</svg>
