<?xml version="1.0" encoding="UTF-8" standalone="no"?>
<svg
   xmlns:dc="http://purl.org/dc/elements/1.1/"
   xmlns:cc="http://creativecommons.org/ns#"
   xmlns:rdf="http://www.w3.org/1999/02/22-rdf-syntax-ns#"
   xmlns:svg="http://www.w3.org/2000/svg"
   xmlns="http://www.w3.org/2000/svg"
   version="1.1"
   id="Layer_1"
   x="0px"
   y="0px"
   viewBox="0 0 65 74"
   style="enable-background:new 0 0 65 74;"
   xml:space="preserve"><metadata
   id="metadata1662"><rdf:RDF><cc:Work
       rdf:about=""><dc:format>image/svg+xml</dc:format><dc:type
         rdf:resource="http://purl.org/dc/dcmitype/StillImage" /><dc:title></dc:title></cc:Work></rdf:RDF></metadata><defs
   id="defs1660" />
<style
   type="text/css"
   id="style1650">
	.st0{fill:#FFFFFF;}
	.st1{fill:none;stroke:#000000;stroke-width:0.105;stroke-miterlimit:10;}
	.st2{fill:#000;}
</style>
<path
   id="path548"
   class="st0"
   d="M32.5,26.9c0.8,0,1.5-0.7,1.5-1.5c0-0.8-0.7-1.5-1.5-1.5c-0.8,0-1.5,0.7-1.5,1.5  C31,26.2,31.7,26.9,32.5,26.9" />
<path
   id="path550"
   class="st1"
   d="M32.5,26.9c0.8,0,1.5-0.7,1.5-1.5c0-0.8-0.7-1.5-1.5-1.5c-0.8,0-1.5,0.7-1.5,1.5  C31,26.2,31.7,26.9,32.5,26.9z" />
<path
   id="path552"
   class="st0"
   d="M32.5,26.9c0.8,0,1.5-0.7,1.5-1.5c0-0.8-0.7-1.5-1.5-1.5c-0.8,0-1.5,0.7-1.5,1.5  C31,26.2,31.7,26.9,32.5,26.9" />
<path
   style="color:#000000;font-style:normal;font-variant:normal;font-weight:normal;font-stretch:normal;font-size:medium;line-height:normal;font-family:sans-serif;font-variant-ligatures:normal;font-variant-position:normal;font-variant-caps:normal;font-variant-numeric:normal;font-variant-alternates:normal;font-variant-east-asian:normal;font-feature-settings:normal;font-variation-settings:normal;text-indent:0;text-align:start;text-decoration:none;text-decoration-line:none;text-decoration-style:solid;text-decoration-color:#000000;letter-spacing:normal;word-spacing:normal;text-transform:none;writing-mode:lr-tb;direction:ltr;text-orientation:mixed;dominant-baseline:auto;baseline-shift:baseline;text-anchor:start;white-space:normal;shape-padding:0;shape-margin:0;inline-size:0;clip-rule:nonzero;display:inline;overflow:visible;visibility:visible;isolation:auto;mix-blend-mode:normal;color-interpolation:sRGB;color-interpolation-filters:linearRGB;solid-color:#000000;solid-opacity:1;vector-effect:none;fill:#000000;fill-opacity:1;fill-rule:nonzero;stroke-width:1;stroke-linecap:butt;stroke-linejoin:miter;stroke-miterlimit:4;stroke-dasharray:none;stroke-dashoffset:0;stroke-opacity:1;color-rendering:auto;image-rendering:auto;shape-rendering:auto;text-rendering:auto;enable-background:accumulate;stop-color:#000000;stop-opacity:1;stroke:none;opacity:1"
   d="m 44.2,21.1 c -0.6,-2 -1.6,-3.8 -3.1,-5.3 -2.2,-2.2 -5.2,-3.6 -8.6,-3.6 -3.4,0 -6.4,1.4 -8.6,3.6 -1.4,1.4 -2.5,3.3 -3.1,5.3 H 2.5 v 40.4 h 60 V 21.1 Z M 24.8,16.8 c 2,-2 4.7,-3.2 7.7,-3.2 3,0 5.7,1.2 7.7,3.2 1.2,1.2 2.1,2.7 2.6,4.3 H 22.2 c 0.5,-1.6 1.4,-3.1 2.6,-4.3 z M 60.5,59.5 H 4.5 V 23.1 h 15.9 c 0,0.4 -0.1,0.9 -0.1,1.3 h 1.3 c 0,-0.5 0,-0.9 0.1,-1.3 h 21.5 c 0.1,0.4 0.1,0.9 0.1,1.3 h 1.3 c 0,-0.4 0,-0.9 -0.1,-1.3 h 15.9 v 36.4 z m -28,-32.6 c -0.4,0 -0.8,-0.2 -1.1,-0.5 -0.3,-0.3 -0.5,-0.7 -0.5,-1.1 0,-0.8 0.7,-1.5 1.5,-1.5 0.9,0 1.5,0.7 1.5,1.5 0.1,0.9 -0.5,1.6 -1.4,1.6 z m 0,-2.9 c -0.8,0 -1.4,0.6 -1.4,1.4 0,0.4 0.1,0.7 0.4,1 0.3,0.3 0.6,0.4 1,0.4 0.8,0 1.4,-0.6 1.4,-1.4 0,-0.8 -0.6,-1.4 -1.4,-1.4 z M 7.6,42.2 c 0,0.6 0.2,1.2 0.7,1.6 0.5,0.4 1,0.6 1.7,0.6 0.7,0 1.2,-0.2 1.7,-0.7 0.5,-0.5 0.7,-1 0.7,-1.7 0,-0.4 -0.1,-0.7 -0.2,-1 C 12.1,40.7 11.9,40.5 11.6,40.3 11.4,40.1 11.2,40 11,39.9 10.8,39.8 10.6,39.7 10.3,39.7 H 10.2 10.1 10 9.9 L 9.3,39.4 C 9.1,39.3 9.1,39.1 9.1,38.8 v 0 c 0,-0.2 0.1,-0.4 0.2,-0.5 0.1,-0.1 0.3,-0.2 0.5,-0.2 0.2,0 0.4,0.1 0.6,0.2 0.2,0.1 0.3,0.3 0.3,0.6 h 1.4 c 0,-0.6 -0.2,-1.1 -0.6,-1.5 C 11.1,37 10.6,36.8 10,36.8 9.4,36.8 8.9,37 8.5,37.4 8.1,37.8 7.9,38.3 7.9,38.9 v 0.1 0.1 c 0,0.2 0.1,0.4 0.2,0.6 0.1,0.2 0.2,0.4 0.4,0.6 0.2,0.2 0.4,0.3 0.5,0.4 0.2,0.1 0.4,0.2 0.6,0.2 H 9.7 9.8 9.9 10 c 0.3,0.1 0.5,0.2 0.8,0.4 0.2,0.2 0.4,0.4 0.4,0.8 0,0.3 -0.1,0.5 -0.3,0.7 -0.2,0.2 -0.4,0.3 -0.7,0.3 C 9.9,43.1 9.7,43 9.5,42.9 9.1,42.8 9,42.5 9,42.2 Z m 5.7,2.1 h 1.4 v -3.1 h 2.6 v 3.1 h 1.4 v -7.4 h -1.4 v 3 h -2.6 v -3 h -1.4 z m 10.3,-7.5 c -1.1,0 -2,0.4 -2.7,1.1 -0.8,0.8 -1.1,1.7 -1.1,2.7 0,1.1 0.4,2 1.1,2.7 0.8,0.7 1.7,1.1 2.7,1.1 1.1,0 2,-0.4 2.7,-1.1 0.8,-0.7 1.1,-1.6 1.1,-2.7 0,-1.1 -0.4,-2 -1.1,-2.7 -0.7,-0.7 -1.6,-1.1 -2.7,-1.1 z m 0,1.3 c 0.7,0 1.3,0.2 1.8,0.7 0.5,0.5 0.7,1.1 0.7,1.8 0,0.7 -0.2,1.3 -0.7,1.8 -0.5,0.5 -1.1,0.8 -1.7,0.8 -0.7,0 -1.3,-0.2 -1.7,-0.8 -0.5,-0.5 -0.7,-1.1 -0.7,-1.8 0,-0.7 0.2,-1.3 0.7,-1.8 0.3,-0.4 0.9,-0.7 1.6,-0.7 m 6.3,6.2 v -2.8 h 0.7 0.3 c 0.3,0 0.5,-0.1 0.8,-0.1 0.2,-0.1 0.5,-0.2 0.7,-0.3 0.3,-0.2 0.5,-0.5 0.7,-0.8 0.2,-0.3 0.2,-0.7 0.2,-1 0,-0.4 -0.1,-0.7 -0.3,-1.1 C 32.8,37.9 32.6,37.6 32.3,37.4 32,37.1 31.7,37 31.4,37 h -1 -0.1 -0.1 -1.7 v 7.4 z m 0,-4.1 v -1.9 h 0.8 0.3 0.2 c 0.2,0.1 0.4,0.2 0.5,0.3 0.1,0.2 0.2,0.3 0.2,0.6 0,0.2 -0.1,0.4 -0.2,0.6 -0.1,0.2 -0.3,0.3 -0.5,0.3 -0.1,0 -0.2,0 -0.3,0.1 h -0.3 -0.4 -0.1 z m 5.6,4.1 v -2.8 h 0.7 0.3 c 0.3,0 0.5,-0.1 0.7,-0.1 0.2,-0.1 0.5,-0.2 0.7,-0.3 0.3,-0.2 0.5,-0.5 0.7,-0.8 0.1,-0.3 0.2,-0.7 0.2,-1 0,-0.4 -0.1,-0.7 -0.3,-1.1 C 38.3,37.9 38.1,37.6 37.8,37.4 37.6,37.1 37.3,37 37,37 h -1 -0.1 -0.1 -1.7 v 7.4 z m 0,-4.1 v -1.9 h 0.8 0.3 0.2 c 0.2,0.1 0.4,0.2 0.5,0.3 0.1,0.2 0.2,0.3 0.2,0.6 0,0.2 -0.1,0.4 -0.2,0.6 -0.1,0.2 -0.3,0.3 -0.5,0.3 -0.1,0 -0.2,0 -0.3,0.1 h -0.3 -0.4 -0.1 z m 4.2,4.1 h 1.4 v -7.4 h -1.4 z m 2.8,0 h 1.4 v -5.4 l 3.1,5.4 h 1.5 v -7.4 h -1.4 v 5.4 L 44,36.9 H 42.5 Z M 57,39.1 C 56.7,38.4 56.3,37.9 55.6,37.4 54.9,37 54.2,36.8 53.5,36.7 h -0.1 c -1.1,0 -2,0.4 -2.8,1.1 -0.8,0.7 -1.2,1.7 -1.2,2.8 0,1.1 0.4,2 1.2,2.7 0.8,0.7 1.7,1.1 2.8,1.1 1.1,0 2,-0.4 2.8,-1.1 0.8,-0.7 1.2,-1.6 1.2,-2.7 v -0.2 h -4.8 v 1.3 h 3.1 c -0.2,0.4 -0.5,0.7 -0.9,0.9 C 54.4,42.8 54,43 53.6,43 h -0.1 c -0.4,0 -0.7,-0.1 -1,-0.2 C 52.2,42.7 51.9,42.5 51.6,42.2 51.4,42 51.3,41.8 51.1,41.6 51,41.4 50.9,41.1 50.9,40.8 v -0.1 -0.1 -0.2 -0.2 c 0,-0.3 0.1,-0.6 0.3,-0.8 0.2,-0.3 0.3,-0.5 0.5,-0.7 0.2,-0.2 0.5,-0.4 0.8,-0.5 0.3,-0.1 0.6,-0.2 0.9,-0.2 h 0.1 c 0.3,0 0.7,0.1 1,0.3 0.3,0.2 0.6,0.4 0.8,0.7 z"
   id="path1655" />
<rect
   style="fill:#ffffff;stroke:none;stroke-width:4;stop-color:#000000"
   id="rect2263"
   width="52.939423"
   height="16.193338"
   x="6.0361466"
   y="32.878159" /></svg>
