<?xml version="1.0" encoding="utf-8"?>
<!-- Generator: Adobe Illustrator 24.1.1, SVG Export Plug-In . SVG Version: 6.00 Build 0)  -->
<svg version="1.1" id="Capa_1" xmlns="http://www.w3.org/2000/svg" xmlns:xlink="http://www.w3.org/1999/xlink" x="0px" y="0px"
	 viewBox="0 0 55 55" style="enable-background:new 0 0 55 55;" xml:space="preserve">
<style type="text/css">
	.st0{fill:#FFFFFF;}
</style>
<g>
	<g>
		<g>
			<path class="st0" d="M27.5,29.5c-7.5,0-13.6-6.1-13.6-13.6S20,2.3,27.5,2.3s13.6,6.1,13.6,13.6S35,29.5,27.5,29.5z M27.5,4.8
				c-6.1,0-11.1,5-11.1,11.1S21.4,27,27.5,27s11.1-5,11.1-11.1S33.6,4.8,27.5,4.8z M5.2,52.7C8,43,16.9,36,27.5,36S47,43,49.8,52.7
				h2.6c-2.9-11-13-19.2-24.9-19.2s-22,8.2-24.9,19.2H5.2z"/>
			<path class="st0" d="M53.7,53.7H49L48.8,53C46,43.4,37.5,37,27.5,37S8.9,43.4,6.2,53L6,53.7H1.3l0.3-1.3
				c3.1-11.7,13.7-19.9,25.9-19.9c12.1,0,22.8,8.2,25.9,19.9L53.7,53.7z M50.5,51.7H51c-3.3-10.2-12.8-17.2-23.6-17.2
				s-20.3,7-23.6,17.2h0.5c3.2-10,12.4-16.7,23-16.7C38.2,35,47.3,41.7,50.5,51.7z M27.5,30.5c-8.1,0-14.6-6.5-14.6-14.6
				S19.4,1.3,27.5,1.3c8,0,14.6,6.5,14.6,14.6S35.5,30.5,27.5,30.5z M27.5,3.3c-6.9,0-12.6,5.7-12.6,12.6s5.7,12.6,12.6,12.6
				s12.6-5.7,12.6-12.6S34.4,3.3,27.5,3.3z M27.5,28c-6.7,0-12.1-5.4-12.1-12.1S20.8,3.8,27.5,3.8s12.1,5.4,12.1,12.1
				S34.2,28,27.5,28z M27.5,5.8c-5.6,0-10.1,4.5-10.1,10.1S21.9,26,27.5,26s10.1-4.5,10.1-10.1S33.1,5.8,27.5,5.8z"/>
		</g>
	</g>
</g>
</svg>
